<svg width="337" height="286" viewBox="0 0 337 286" fill="none" xmlns="http://www.w3.org/2000/svg">
<path d="M336.75 44.5972C336.75 19.9668 316.783 2.5514e-06 292.153 5.69872e-06C267.523 8.84603e-06 247.556 19.9669 247.556 44.5972L247.556 351L336.75 351L336.75 44.5972Z" fill="#4D5661"/>
<path d="M41.722 0L0.555641 9.20562e-06L0.555653 351L41.7221 351L41.722 0Z" fill="#FF5F21"/>
<path fill-rule="evenodd" clip-rule="evenodd" d="M96.6111 1.52588e-05H137.778L137.778 351L96.6111 351L55.4445 351L55.4445 1.52588e-05H96.6111Z" fill="#F5B840"/>
<path fill-rule="evenodd" clip-rule="evenodd" d="M192.666 1.52588e-05H233.833L233.833 351H192.666L192.666 351L151.5 351L151.5 1.52588e-05H192.666H192.666Z" fill="#2D75E1"/>
</svg>
